<svg version="1.1" id="Layer_1" xmlns="http://www.w3.org/2000/svg" xmlns:xlink="http://www.w3.org/1999/xlink" x="0px" y="0px"
	 viewBox="0 0 949.1 949.1" style="enable-background:new 0 0 949.1 949.1;" xml:space="preserve">
<style type="text/css">
	.st0{fill-rule:evenodd;clip-rule:evenodd;fill:#03C75A;}
</style>
<path class="st0" d="M770.7,356.5c27,0,46.9,10.2,60.6,27.6v-21.6h60.6v201.3c0,71.2-54.4,101.3-109.6,101.3v-55.9h2.1
	c29,0,46.9-15.3,46.9-45.4v-19.5c-13.7,17.4-33.6,27.6-60.6,27.6c-58.9,0-102.1-49.2-102.1-107.7S711.8,356.5,770.7,356.5z
	 M119.5,291.8v90.6c13.7-16.1,34-25.9,61.8-25.9c54.4,0,99.2,48.8,99.2,111.9c0,63.1-44.8,111.9-99.2,111.9
	c-27.8,0-48.1-9.7-61.8-25.9v19.9H57.3V291.8L119.5,291.8L119.5,291.8z M529.4,356.5c61,0,109.9,48.8,109.9,111.9
	c0,63.1-49,111.9-109.9,111.9s-110-48.8-110-111.9C419.4,405.3,468.4,356.5,529.4,356.5L529.4,356.5z M286.2,284.1
	c50.5,5,96.3,36.2,96.3,102.1v188.3h-62.2V386.1c0-25.5-12.7-40.6-34.1-44.8V284.1z M168.9,412.4c-31,0-53.4,21.6-53.4,56
	c0,34.4,22.5,56,53.4,56c31,0,53.4-21.6,53.4-56C222.3,434,199.9,412.4,168.9,412.4z M529.4,414.3c-29.2,0-51.6,21.6-51.6,54.1
	c0,32.5,22.4,54.1,51.6,54.1S581,501,581,468.4C581,435.9,558.6,414.3,529.4,414.3z M781.1,411c-31.9,0-54.3,21.6-54.3,53.2
	s22.5,53.2,54.3,53.2c31.9,0,54.3-21.6,54.3-53.2S812.9,411,781.1,411z"/>
</svg>
