<svg xmlns="http://www.w3.org/2000/svg" version="1.1" xmlns:xlink="http://www.w3.org/1999/xlink" xmlns:svgjs="http://svgjs.dev/svgjs" width="2000" height="1500" viewBox="0 0 2000 1500"><rect width="2000" height="1500" fill="#172554"></rect><g transform="matrix(0.75,0,0,0.75,249.09154779283585,511.8579621415716)"><svg viewBox="0 0 396 125" data-background-color="#172554" preserveAspectRatio="xMidYMid meet" height="631" width="2000" xmlns="http://www.w3.org/2000/svg" xmlns:xlink="http://www.w3.org/1999/xlink"><g id="tight-bounds" transform="matrix(1,0,0,1,0.24008861730862918,0.40069674020824664)"><svg viewBox="0 0 395.52 124.19845694397662" height="124.19845694397662" width="395.52"><g><svg viewBox="0 0 395.52 124.19845694397662" height="124.19845694397662" width="395.52"><g><svg viewBox="0 0 395.52 124.19845694397662" height="124.19845694397662" width="395.52"><g id="textblocktransform"><svg viewBox="0 0 395.52 124.19845694397662" height="124.19845694397662" width="395.52" id="textblock"><g><svg viewBox="0 0 395.52 124.19845694397662" height="124.19845694397662" width="395.52"><path d="M394.594 26.638C392.735 13.746 387.435 10.163 387.435 10.163 371.165-3.116 350.86-0.254 332.619 1.654 300.414 1.731 268.339 4.568 236.208 6.089 168.767 6.321 100.749 2.505 33.643 11.916 27.339 14.804-6.54 12.483 1.121 28.288 3.129 34.863 10.456 42.16 10.232 48.193 11.236 49.25 12.631 46.827 13.226 48.348 15.309 52.447 18.711 50.514 21.501 52.937 17.614 59.409 20.403 64.798 23.062 70.444 18.377 71.914 12.371 71.218 9.675 76.091 9.396 79.623 7.89 78.953 6.235 78.798 5.026 78.695 2.59 79.082 2.999 80.191 4.394 83.981-1.594 86.172 2.162 89.885-0.422 93.907 3.948 97.388 3.353 101.746 3.278 102.622 3.687 103.37 4.338 103.576 7.22 104.685 3.018 106.851 3.464 109.197 33.029 125.234 65.104 114.147 95.394 121.522 103.259 116.365 97.346 123.352 100.489 122.269 102.943 121.006 104.728 126.24 107.499 123.275 107.927 122.424 107.276 120.413 108.8 120.8 109.6 121.006 110.307 120.954 110.418 119.768 110.586 117.989 109.117 119.098 108.726 118.17 112.947 113.477 111.906 124.641 115.866 124.177 115.68 122.811 114.528 120.851 116.889 121.109 119.232 119.149 119.306 117.525 121.389 121.934 121.463 122.888 121.835 123.558 122.43 124.023 128.938 119.227 135.409 125.724 142.233 123.558 146.417 121.186 150.433 124.848 154.672 123.945 156.16 123.223 157.666 121.934 159.098 124.1 176.632 124.564 195.319 122.63 211.943 124.177 256.364 121.289 303.836 125.363 350.674 121.547 361.719 120.078 373.192 117.989 383.958 116.313 383.958 116.313 392.679 111.724 392.679 91.097S394.538 73.049 394.817 56.624C395.096 40.2 396.398 39.53 394.538 26.638Z" opacity="1" fill="#ffffff" data-fill-palette-color="tertiary"></path><g transform="matrix(1,0,0,1,55.76832,26.230666666666668)"><svg width="283.98335999999995" viewBox="2.45 -37 148.44 37.5" height="71.7371236106433" data-palette-color="#3a3d53"><path d="M15.1 0Q11.2 0 8.35-1.6 5.5-3.2 3.98-5.95 2.45-8.7 2.45-12.15L2.45-12.15Q2.45-15.75 4.03-18.88 5.6-22 8.53-23.85 11.45-25.7 15.35-25.7L15.35-25.7Q19.55-25.7 22.45-23.68 25.35-21.65 26.5-18.7L26.5-18.7Q26.8-18.1 26.8-17.55L26.8-17.55Q26.8-16.4 25.2-15.95L25.2-15.95Q24.6-15.85 24.45-15.85L24.45-15.85Q23.7-15.85 23.2-16.28 22.7-16.7 22.25-17.55L22.25-17.55Q21.45-19.3 19.75-20.53 18.05-21.75 15.65-21.75L15.65-21.75Q13.2-21.75 11.33-20.45 9.45-19.15 8.43-16.95 7.4-14.75 7.4-12.2L7.4-12.2Q7.4-8.55 9.47-6.25 11.55-3.95 15.4-3.95L15.4-3.95Q17.85-3.95 19.55-4.9 21.25-5.85 22.08-7.3 22.9-8.75 23-10.25L23-10.25Q23-10.9 23.53-11.33 24.05-11.75 25-11.75L25-11.75Q26.2-11.75 26.83-11.28 27.45-10.8 27.45-9.6L27.45-9.6Q27.4-7.3 26.03-5.1 24.65-2.9 21.9-1.45 19.15 0 15.1 0L15.1 0ZM45.35-25.8Q48.55-25.8 50.45-23.75 52.35-21.7 52.35-18.65L52.35-18.65Q52.35-15.75 50.55-14.1 48.75-12.45 45.9-12.45L45.9-12.45Q44.65-12.45 44.12-12.83 43.6-13.2 43.6-14.15L43.6-14.15Q43.6-15 43.97-15.38 44.35-15.75 45.1-15.8L45.1-15.8Q48.25-16.05 48.25-18.75L48.25-18.75Q48.25-20.05 47.52-20.95 46.8-21.85 45.3-21.85L45.3-21.85Q43.55-21.85 42.17-20.2 40.8-18.55 39.97-16.2 39.15-13.85 39-11.75L39-11.75Q38.65-8 38.65-3.35L38.65-3.35Q38.65-1.1 38.15-0.35 37.65 0.4 36.25 0.4L36.25 0.4Q34.9 0.4 34.32-0.18 33.75-0.75 33.75-2.1L33.75-2.1Q33.7-3.05 33.7-11.15L33.7-11.15Q33.7-15.2 33.15-20.5L33.15-20.5 32.85-24.35Q32.8-25.3 33.42-25.85 34.05-26.4 35.2-26.4L35.2-26.4Q37.2-26.4 37.3-24.6L37.3-24.6 37.65-19.5Q38.55-22.35 40.55-24.08 42.55-25.8 45.35-25.8L45.35-25.8ZM81.7-4Q82.45-3.9 82.87-3.5 83.3-3.1 83.3-2.15L83.3-2.15Q83.3-1.25 82.85-0.65 82.4-0.05 81.6-0.05L81.6-0.05Q79.55-0.05 78.52-0.65 77.5-1.25 76.65-2.9L76.65-2.9Q74.55 0.5 68.85 0.5L68.85 0.5Q63.05 0.5 60.3-3.03 57.55-6.55 57.55-11.8L57.55-11.8Q57.55-15.3 58.95-18.25 60.35-21.2 63.05-22.95 65.75-24.7 69.35-24.7L69.35-24.7Q71.65-24.7 73.42-23.8 75.2-22.9 76.1-21.35L76.1-21.35 76.25-22.6Q76.45-24.4 78.4-24.4L78.4-24.4Q79.7-24.4 80.25-23.83 80.8-23.25 80.7-22.4L80.7-22.4Q80.2-18.65 80.1-16.75L80.1-16.75Q79.95-14.95 79.95-12.05L79.95-12.05 79.95-8.75Q79.95-6.15 80.22-5.15 80.5-4.15 81.7-4L81.7-4ZM75.05-8.75Q75.1-11 75.1-14.9L75.1-14.9Q75.1-16.95 74.22-18.25 73.35-19.55 72.07-20.15 70.8-20.75 69.5-20.75L69.5-20.75Q67.25-20.75 65.67-19.43 64.1-18.1 63.32-16.05 62.55-14 62.55-11.8L62.55-11.8Q62.55-8.45 64.12-5.98 65.7-3.5 69.05-3.5L69.05-3.5Q71.7-3.5 73.35-4.85 75-6.2 75.05-8.75L75.05-8.75ZM99.34-37Q102.84-37 104.77-35.02 106.69-33.05 106.69-29.15L106.69-29.15Q106.69-27.9 106.12-27.28 105.54-26.65 104.29-26.65L104.29-26.65Q101.89-26.65 101.79-28.8L101.79-28.8Q101.74-30.75 101.29-31.83 100.84-32.9 99.29-32.9L99.29-32.9Q97.59-32.9 96.97-31.38 96.34-29.85 96.34-26.4L96.34-26.4 96.34-20.65 99.89-20.65Q100.79-20.65 101.24-20.13 101.69-19.6 101.69-18.65L101.69-18.65Q101.69-16.85 99.84-16.8L99.84-16.8Q98.44-16.75 96.39-16.75L96.39-16.75 96.54-2.1Q96.59-1.05 95.92-0.53 95.24 0 94.14 0L94.14 0Q92.99 0 92.37-0.58 91.74-1.15 91.74-2.05L91.74-2.05Q91.69-7.4 91.49-16.65L91.49-16.65Q90.84-16.6 89.09-16.6L89.09-16.6Q87.94-16.6 87.44-17.1 86.94-17.6 86.94-18.6L86.94-18.6Q86.94-19.5 87.37-20 87.79-20.5 88.99-20.55L88.99-20.55 91.44-20.55Q91.34-24.95 91.34-26.65L91.34-26.65Q91.34-31.5 93.34-34.25 95.34-37 99.34-37L99.34-37ZM123.74-8.75Q124.89-8.75 125.39-8.25 125.89-7.75 125.89-6.55L125.89-6.55Q125.89-3.7 124.04-1.83 122.19 0.05 119.34 0.05L119.34 0.05Q115.39 0.05 113.64-3.33 111.89-6.7 111.89-13.9L111.89-13.9Q111.89-16.45 112.04-19L112.04-19 109.64-19.15Q107.69-19.25 107.69-21.2L107.69-21.2Q107.69-22.2 108.22-22.68 108.74-23.15 109.94-23.1L109.94-23.1 112.39-22.95Q112.69-26.1 113.54-31.7L113.54-31.7Q113.84-33.5 115.99-33.5L115.99-33.5Q117.24-33.5 117.92-32.85 118.59-32.2 118.49-31.3L118.49-31.3Q117.79-26.95 117.29-22.7L117.29-22.7Q119.99-22.6 120.84-22.6L120.84-22.6Q121.79-22.6 122.24-22.18 122.69-21.75 122.69-20.85L122.69-20.85Q122.69-19.75 122.22-19.33 121.74-18.9 120.49-18.85L120.49-18.85 116.94-18.85Q116.79-16.45 116.79-13.9L116.79-13.9Q116.79-8.85 117.44-6.43 118.09-4 119.74-4L119.74-4Q121.64-4 121.79-6.95L121.79-6.95Q121.79-7.85 122.22-8.3 122.64-8.75 123.74-8.75L123.74-8.75ZM143.89-25.8Q147.09-25.8 148.99-23.75 150.89-21.7 150.89-18.65L150.89-18.65Q150.89-15.75 149.09-14.1 147.29-12.45 144.44-12.45L144.44-12.45Q143.19-12.45 142.66-12.83 142.14-13.2 142.14-14.15L142.14-14.15Q142.14-15 142.51-15.38 142.89-15.75 143.64-15.8L143.64-15.8Q146.79-16.05 146.79-18.75L146.79-18.75Q146.79-20.05 146.06-20.95 145.34-21.85 143.84-21.85L143.84-21.85Q142.09-21.85 140.71-20.2 139.34-18.55 138.51-16.2 137.69-13.85 137.54-11.75L137.54-11.75Q137.19-8 137.19-3.35L137.19-3.35Q137.19-1.1 136.69-0.35 136.19 0.4 134.79 0.4L134.79 0.4Q133.44 0.4 132.86-0.18 132.29-0.75 132.29-2.1L132.29-2.1Q132.24-3.05 132.24-11.15L132.24-11.15Q132.24-15.2 131.69-20.5L131.69-20.5 131.39-24.35Q131.34-25.3 131.96-25.85 132.59-26.4 133.74-26.4L133.74-26.4Q135.74-26.4 135.84-24.6L135.84-24.6 136.19-19.5Q137.09-22.35 139.09-24.08 141.09-25.8 143.89-25.8L143.89-25.8Z" opacity="1" transform="matrix(1,0,0,1,0,0)" fill="#3a3d53" class="wordmark-text-0" data-fill-palette-color="quaternary" id="text-0"></path></svg></g></svg></g></svg></g></svg></g><g></g></svg></g><defs></defs></svg><rect width="395.52" height="124.19845694397662" fill="none" stroke="none" visibility="hidden"></rect></g></svg></g></svg>